<svg width="1217" height="340" viewBox="0 0 1217 340" fill="none" xmlns="http://www.w3.org/2000/svg">
<path d="M134.549 68.4807C97.9292 68.2133 68.2943 38.6024 68.0266 2.01328L134.549 2.01328V68.4807ZM135.549 68.4825V2.01328H269.599V68.4825H135.549ZM0.5 270.89V69.4825H67.0247V270.89H0.5ZM67.0247 68.4825H0.501829C0.76962 31.8933 30.4044 2.28243 67.0247 2.0151V68.4825ZM0.501829 271.89H67.0247L67.0247 338.357C30.4044 338.09 0.769602 308.479 0.501829 271.89ZM135.549 271.89H269.599V338.359H135.549V271.89ZM134.549 271.892V338.359H68.0266C68.2943 301.77 97.9292 272.159 134.549 271.892ZM473.173 271.89H607.223V338.359H473.173V271.89ZM472.173 271.892V338.359H405.65C405.918 301.77 435.553 272.159 472.173 271.892ZM338.124 271.892C374.744 272.159 404.379 301.77 404.647 338.359H338.124L338.124 271.892ZM404.648 270.89H338.124V69.4825H404.648V270.89ZM472.173 68.4806C435.553 68.2133 405.918 38.6024 405.65 2.01328L472.173 2.01328V68.4806ZM473.173 68.4825V2.01328H607.223V68.4825H473.173ZM338.124 68.4807L338.124 2.01328L404.647 2.01328C404.379 38.6024 374.744 68.2133 338.124 68.4807ZM810.797 2.01328H877.322V68.4825H810.797V2.01328ZM878.322 69.4825H944.846V135.952H878.322V69.4825ZM878.322 2.0151C914.942 2.28243 944.577 31.8933 944.844 68.4825H878.322V2.0151ZM809.797 2.01328V68.4807C773.177 68.2133 743.542 38.6024 743.274 2.01328H809.797ZM675.747 338.359V204.421H742.272V338.359H675.747ZM809.797 338.359H743.274C743.542 301.77 773.177 272.159 809.797 271.892V338.359ZM810.797 338.359V271.89H877.322V338.359H810.797ZM944.846 270.89H878.322V204.421H944.846V270.89ZM878.322 338.357V271.89H944.844C944.577 308.479 914.942 338.09 878.322 338.357ZM877.322 136.952V203.421H743.272V136.952H877.322ZM742.272 135.952H675.747V2.01328H742.272V135.952ZM675.747 203.421V137.658L741.564 203.421H675.747ZM1013.37 68.4825V2.01328H1214.95V68.4825H1148.42H1147.92H1013.37ZM1080.9 135.952C1081.17 99.3625 1110.8 69.7516 1147.42 69.4843V135.952H1080.9ZM1080.9 136.952H1147.42V338.359H1080.9V136.952Z" fill="black" stroke="black"/>
<path d="M0 1H1215.45M0 68.527H1215.45M0 136.054H1215.45M0 203.581H1215.45M0 271.108H1215.45M0 338.635H1215.45M0.513294 1.51328L0.51328 339.251M68.0403 1.51328L68.0403 339.251M135.567 1.51328L135.567 339.251M203.094 1.51328L203.094 339.251M270.621 1.51328V339.251M338.148 1.51328V339.251M405.675 1.51328V339.251M473.203 1.51328V339.251M540.73 1.51328V339.251M608.257 1.51328V339.251M675.784 1.51328V339.251M743.311 1.51328V339.251M810.838 1.51328V339.251M878.365 1.51328V339.251M945.892 1.51328V339.251M1013.42 1.51328V339.251M1080.95 1.51328V339.251M1148.47 1.51328V339.251M1216 1.51328V339.251" stroke="black"/>
</svg>
